name ./resultDataOpenSim/trcMotMarkerGrf/sub09/grf-01-07.mot
datacolumns 19
datarows 12
range 0.94400000 0.98800000
endheader

                time	     ground_force_vx	     ground_force_vy	     ground_force_vz	     ground_force_px	     ground_force_py	     ground_force_pz	   l_ground_force_vx	   l_ground_force_vy	   l_ground_force_vz	   l_ground_force_px	   l_ground_force_py	   l_ground_force_pz	     ground_torque_x	     ground_torque_y	     ground_torque_z	   l_ground_torque_x	   l_ground_torque_y	   l_ground_torque_z	
          0.94400000	          0.00000000	          0.00000000	          0.00000000	          0.00000000	          0.00000000	          0.00000000	         -7.83655713	        393.24302620	          5.03544219	          0.08096042	         -0.00000000	          0.00993630	          0.00000000	          0.00000000	          0.00000000	          0.00000000	         -1.23935223	          0.00000000	
          0.94800000	          0.00000000	          0.00000000	          0.00000000	          0.00000000	          0.00000000	          0.00000000	         -7.41907524	        397.55292339	          6.06239351	          0.08283390	         -0.00000000	          0.00983163	          0.00000000	          0.00000000	          0.00000000	          0.00000000	         -1.19978414	          0.00000000	
          0.95200000	          0.00000000	          0.00000000	          0.00000000	          0.00000000	          0.00000000	          0.00000000	         -6.79721412	        402.17453843	          7.40734166	          0.08453922	         -0.00000000	          0.00969680	          0.00000000	          0.00000000	          0.00000000	          0.00000000	         -1.15964292	          0.00000000	
          0.95600000	          0.00000000	          0.00000000	          0.00000000	          0.00000000	          0.00000000	          0.00000000	         -5.85137169	        407.24109617	          8.96320318	          0.08607071	         -0.00000000	          0.00953124	          0.00000000	          0.00000000	          0.00000000	          0.00000000	         -1.12989566	          0.00000000	
          0.96000000	          0.00000000	          0.00000000	          0.00000000	          0.00000000	          0.00000000	          0.00000000	         -4.47314474	        412.85661624	         10.61356438	          0.08743856	         -0.00000000	          0.00934005	          0.00000000	          0.00000000	          0.00000000	          0.00000000	         -1.12059028	          0.00000000	
          0.96400000	          0.00000000	          0.00000000	          0.00000000	          0.00000000	          0.00000000	          0.00000000	         -2.61545772	        419.04304228	         12.26905331	          0.08866566	         -0.00000000	          0.00913097	          0.00000000	          0.00000000	          0.00000000	          0.00000000	         -1.13958096	          0.00000000	
          0.96800000	          0.00000000	          0.00000000	          0.00000000	          0.00000000	          0.00000000	          0.00000000	         -0.32030934	        425.80511499	         13.86992390	          0.08978121	         -0.00000000	          0.00892828	          0.00000000	          0.00000000	          0.00000000	          0.00000000	         -1.19157101	          0.00000000	
          0.97200000	          0.00000000	          0.00000000	          0.00000000	          0.00000000	          0.00000000	          0.00000000	          2.30582720	        433.18508717	         15.36652383	          0.09082184	         -0.00000000	          0.00876360	          0.00000000	          0.00000000	          0.00000000	          0.00000000	         -1.27765813	          0.00000000	
          0.97600000	          0.00000000	          0.00000000	          0.00000000	          0.00000000	          0.00000000	          0.00000000	          5.14843628	        441.21665752	         16.72123006	          0.09185416	         -0.00000000	          0.00865709	          0.00000000	          0.00000000	          0.00000000	          0.00000000	         -1.39549837	          0.00000000	
          0.98000000	          0.00000000	          0.00000000	          0.00000000	          0.00000000	          0.00000000	          0.00000000	          8.13066298	        449.87446507	         17.93243586	          0.09294121	         -0.00000000	          0.00861687	          0.00000000	          0.00000000	          0.00000000	          0.00000000	         -1.54016541	          0.00000000	
          0.98400000	          0.00000000	          0.00000000	          0.00000000	          0.00000000	          0.00000000	          0.00000000	         11.23580161	        459.10857546	         19.03940388	          0.09409281	         -0.00000000	          0.00864362	          0.00000000	          0.00000000	          0.00000000	          0.00000000	         -1.70563718	          0.00000000	
          0.98800000	          0.00000000	          0.00000000	          0.00000000	          0.00000000	          0.00000000	          0.00000000	         14.50508893	        468.88431327	         20.09283562	          0.09528124	         -0.00000000	          0.00873247	          0.00000000	          0.00000000	          0.00000000	          0.00000000	         -1.88658414	          0.00000000	
